<svg xmlns="http://www.w3.org/2000/svg" width="118" height="118"><g transform="translate(-509 -2511)"><circle data-name="Ellipse 3" cx="59" cy="59" r="59" transform="translate(509 2511)" fill="#fff"/><g fill="#ff8553"><path data-name="Path 14" d="M595.071 2567.169a3.23 3.23 0 00-3.227-3.227h-1.656a10.406 10.406 0 001.514-3.8 8.958 8.958 0 00-1.207-6.77 4.949 4.949 0 00-6.3-1.784 2.842 2.842 0 011.449-1.268 1.076 1.076 0 10-.79-2 4.989 4.989 0 00-3.066 3.657 5.247 5.247 0 00-3.639-.808 5.012 5.012 0 00-3.149 1.904 8.142 8.142 0 00-3.118-3.673 3.205 3.205 0 00-1.382-5.409 3.209 3.209 0 00-5.937 0 3.205 3.205 0 00-1.373 5.415 8.123 8.123 0 00-3.764 6.916 9.651 9.651 0 00-2.526-1.222 6.6 6.6 0 01-3.744-2.975 5.382 5.382 0 00-6.581-2.339 3.351 3.351 0 01-.916-2.31 1.076 1.076 0 00-2.151 0 5.485 5.485 0 001.235 3.48 5.386 5.386 0 00-.9 6.546 6.486 6.486 0 01.716 4.678 9.666 9.666 0 00-.227 1.762h-1.1a3.23 3.23 0 00-3.232 3.227v6.023a3.213 3.213 0 00.824 2.151 3.215 3.215 0 00-.824 2.152v6.023a3.213 3.213 0 00.824 2.152 3.213 3.213 0 00-.824 2.151v6.023a3.23 3.23 0 003.227 3.227h48.617a3.23 3.23 0 003.227-3.227v-6.023a3.213 3.213 0 00-.824-2.151 3.213 3.213 0 00.824-2.151v-6.024a3.213 3.213 0 00-.824-2.151 3.213 3.213 0 00.824-2.151zm-13.423-12.061a2.481 2.481 0 01-2.26 2.26 2.48 2.48 0 012.26-2.26zm-3.158-1.817a2.829 2.829 0 011.342.123 4.633 4.633 0 00-2.489 5.186 1.076 1.076 0 00.813.813 4.694 4.694 0 001.031.116 4.632 4.632 0 004.6-5.066 3.56 3.56 0 012.991-1.171 3.029 3.029 0 011.958 1.321 6.907 6.907 0 01.852 5.136 7.585 7.585 0 01-2.188 4.193h-9.528a7.585 7.585 0 01-2.191-4.194 6.909 6.909 0 01.852-5.136 3.027 3.027 0 011.958-1.321zm-3.965 9.7a9.684 9.684 0 00.555.954h-.734zm-9.125-14.847a1.057 1.057 0 01-.011-2.113h.026a1.076 1.076 0 001.068-.95 1.056 1.056 0 012.1 0 1.076 1.076 0 001.068.95h.024a1.057 1.057 0 01-.008 2.113zm2.138 2.156a5.962 5.962 0 015.935 5.4H571.6a1.076 1.076 0 100 2.151h1.7l-1.147 6.095h-9.235l-1.238-6.588a5.965 5.965 0 01-.02-2.092h3.805a1.076 1.076 0 100-2.151h-2.991a6 6 0 01.476-.664 5.944 5.944 0 014.588-2.151zm-21.838 6.127a3.232 3.232 0 115.6-3.227 8.751 8.751 0 004.955 3.95 7.432 7.432 0 013.686 2.595l.79 4.2h-14.249a7.476 7.476 0 01.173-1.289 8.635 8.635 0 00-.955-6.229zm-3.549 10.742a1.077 1.077 0 011.076-1.076h48.617a1.077 1.077 0 011.076 1.076v6.023a1.077 1.077 0 01-1.076 1.076h-48.617a1.077 1.077 0 01-1.076-1.076zm50.769 26.675a1.077 1.077 0 01-1.076 1.076h-48.617a1.077 1.077 0 01-1.076-1.076v-6.023a1.077 1.077 0 011.076-1.076h20.02a1.076 1.076 0 100-2.151h-20.02a1.077 1.077 0 01-1.076-1.076v-6.023a1.077 1.077 0 011.076-1.076h48.617a1.077 1.077 0 011.076 1.076v6.023a1.077 1.077 0 01-1.076 1.076h-19.992a1.076 1.076 0 100 2.151h19.992a1.077 1.077 0 011.076 1.076zm0 0"/><path data-name="Path 15" d="M546.884 2571.256a1.076 1.076 0 10-.76-.315 1.084 1.084 0 00.76.315zm0 0"/><path data-name="Path 16" d="M588.188 2571.256a1.076 1.076 0 10-.76-.315 1.084 1.084 0 00.76.315zm0 0"/><path data-name="Path 17" d="M546.884 2579.431a1.076 1.076 0 10.76.315 1.084 1.084 0 00-.76-.315zm0 0"/><path data-name="Path 18" d="M588.188 2581.582a1.076 1.076 0 10-.76-.315 1.084 1.084 0 00.76.315zm0 0"/><path data-name="Path 19" d="M546.884 2589.757a1.076 1.076 0 10.76.315 1.084 1.084 0 00-.76-.315zm0 0"/><path data-name="Path 20" d="M588.188 2589.757a1.076 1.076 0 10.76.315 1.084 1.084 0 00-.76-.315zm0 0"/><path data-name="Path 21" d="M564.39 2559.87a1.076 1.076 0 001.076 1.076h2.147a1.076 1.076 0 000-2.151h-2.147a1.076 1.076 0 00-1.076 1.075zm0 0"/><path data-name="Path 22" d="M567.536 2584.594a1.076 1.076 0 10.76.315 1.084 1.084 0 00-.76-.315zm0 0"/></g></g></svg>