<svg xmlns="http://www.w3.org/2000/svg" width="118" height="118"><g transform="translate(-1292 -2511)"><circle data-name="Ellipse 5" cx="59" cy="59" r="59" transform="translate(1292 2511)" fill="#fff"/><g fill="#ff8553"><path data-name="Path 24" d="M1374.351 2581.933h-1.868a18.271 18.271 0 00-4.636-11.133 1.072 1.072 0 00.022-.216v-14.554a1.079 1.079 0 00-1.079-1.079h-4.527v-6.691a1.076 1.076 0 00-.314-.763l-5.182-5.181a1.079 1.079 0 00-.767-.316h-18.128a1.079 1.079 0 00-.763.316l-5.181 5.184a1.078 1.078 0 00-.314.763v6.691h-4.535a1.079 1.079 0 00-1.079 1.076v35.461a1.079 1.079 0 00.316.763l4.684 4.688a1.079 1.079 0 00.763.316h30.337a1.081 1.081 0 00.763-.316l4.688-4.688a1.079 1.079 0 00.316-.763v-2.651h1.733a5.835 5.835 0 005.828-5.828 1.079 1.079 0 00-1.079-1.079zm-23.773-3.7a3.665 3.665 0 01.352-1.576v-.008a3.713 3.713 0 01.227-.407 1.057 1.057 0 00.061-.109 6.41 6.41 0 00.634-2.32q.043.1.082.2a1.079 1.079 0 002.052-.663 3.4 3.4 0 01.941-2.129 13 13 0 001.838 3.989c.173.286.353.581.519.867a.97.97 0 00.043.068 3.67 3.67 0 01.351.639v.005a3.7 3.7 0 11-7.106 1.441zm9.091-2.29l-.007-.016a5.873 5.873 0 00-.527-.965c-.171-.293-.349-.586-.521-.87-.989-1.629-1.922-3.167-1.565-4.706a1.079 1.079 0 00-1.444-1.249 6.376 6.376 0 00-3.177 2.975 3.833 3.833 0 00-1.852-.809 1.076 1.076 0 00-1.11 1.495 4.379 4.379 0 01-.16 3.337 5.853 5.853 0 00-.315.572.68.68 0 00-.029.061 5.852 5.852 0 00.777 6.164h-11.724a16.189 16.189 0 0132.307 0h-11.508a5.855 5.855 0 00.855-5.989zm-4.537-11.253q-.479-.025-.963-.025t-.963.025v-.754a.964.964 0 111.927 0zm-16.181-9.739v-5.612h15.973v5.612zm18.132-5.612h3.017v5.612h-3.017zm-18.764-5.18h17.238l3.022 3.022H1335.3zm-4.548 5.18h3.022v5.612h-3.022zm35.829 37.343h-11.006a1.08 1.08 0 100 2.159h7.116v2.2l-4.056 4.059h-29.439l-4.056-4.056v-33.934h37.551v11.651a18.28 18.28 0 00-8.42-3.829v-1a3.122 3.122 0 00-6.244 0v1a18.381 18.381 0 00-15.193 17h-1.653a1.079 1.079 0 00-1.079 1.079 5.835 5.835 0 005.828 5.828h11.011a1.08 1.08 0 000-2.159h-11.009a3.676 3.676 0 01-3.508-2.59h37.667a3.676 3.676 0 01-3.508 2.59zm0 0"/><path data-name="Path 25" d="M1354.276 2586.681a1.079 1.079 0 10.763.316 1.088 1.088 0 00-.763-.316zm0 0"/></g></g></svg>