<svg xmlns="http://www.w3.org/2000/svg" width="118" height="118"><g transform="translate(-901 -2511)"><circle data-name="Ellipse 4" cx="59" cy="59" r="59" transform="translate(901 2511)" fill="#fff"/><g data-name="cake (2)"><g data-name="Group 19"><path data-name="Path 23" d="M992.013 2590.311a4.122 4.122 0 00-2.9-1.212h-6.14v-24.815a4.7 4.7 0 00-4.685-4.685h-14.614a4.586 4.586 0 00-2.774-6.557c.244-2.336 1.3-7.81 5.908-8.627a1.223 1.223 0 00-.423-2.406c-6.354 1.16-7.659 8.291-7.926 11.016a4.586 4.586 0 00-2.9 6.575h-14.618a4.7 4.7 0 00-4.685 4.685v24.813h-6.145a4.137 4.137 0 000 8.273h58.98a4.122 4.122 0 002.841-1.16l.081-.07.011-.011a4.116 4.116 0 00-.011-5.819zm-33.913-34.365a2.139 2.139 0 110 3.026 2.139 2.139 0 010-3.026zm-19.4 8.338a2.25 2.25 0 012.244-2.244h37.334a2.25 2.25 0 012.244 2.244v6.285a24.994 24.994 0 00-10.7-3.728 33.042 33.042 0 00-14.761 2.012c-9 3.195-14.576 1.565-16.367.835v-5.4zm0 7.978c2.783.9 8.685 1.913 17.179-1.107a30.675 30.675 0 0113.683-1.89 22.612 22.612 0 0110.966 4.246v10.775H938.7v-12.024zm0 14.471h41.828v2.365H938.7zm51.629 7.711l-.046.052a1.682 1.682 0 01-1.16.446h-59.012a1.7 1.7 0 010-3.4h59.009a1.681 1.681 0 011.206.516l.005.005a1.681 1.681 0 01-.005 2.381z" fill="#ff8553"/></g></g></g></svg>